<mxfile host="app.diagrams.net" agent="Mozilla/5.0 (Windows NT 10.0; Win64; x64) AppleWebKit/537.36 (KHTML, like Gecko) Chrome/126.0.0.0 Safari/537.36" version="24.7.6" pages="2">
  <diagram name="Page-1" id="c7558073-3199-34d8-9f00-42111426c3f3">
    <mxGraphModel dx="2492" dy="404" grid="1" gridSize="10" guides="1" tooltips="1" connect="1" arrows="1" fold="1" page="1" pageScale="1" pageWidth="826" pageHeight="1169" background="none" math="0" shadow="0">
      <root>
        <mxCell id="0" />
        <mxCell id="1" parent="0" />
        <mxCell id="2" value="&lt;p style=&quot;margin: 0px; margin-top: 4px; text-align: center; text-decoration: underline;&quot;&gt;&lt;strong&gt;Process 1&lt;br /&gt;&lt;/strong&gt;&lt;/p&gt;&lt;hr /&gt;&lt;p style=&quot;margin: 0px; margin-left: 8px;&quot;&gt;System Study&lt;/p&gt;&lt;p style=&quot;margin: 0px; margin-left: 8px;&quot;&gt;Preparation&lt;/p&gt;" style="verticalAlign=middle;align=center;overflow=fill;fontSize=12;fontFamily=Helvetica;html=1;rounded=1;fontStyle=1;strokeWidth=3;fillColor=#E6FFCC" parent="1" vertex="1">
          <mxGeometry x="-999" y="246" width="110" height="90" as="geometry" />
        </mxCell>
        <mxCell id="3" value="Engineering" style="whiteSpace=wrap;align=center;verticalAlign=middle;fontStyle=1;strokeWidth=3;fillColor=#FFFFCC" parent="1" vertex="1">
          <mxGeometry x="-989" y="136" width="90" height="60" as="geometry" />
        </mxCell>
        <mxCell id="4" value="Investors" style="whiteSpace=wrap;align=center;verticalAlign=middle;fontStyle=1;strokeWidth=3;fillColor=#FFFFCC" parent="1" vertex="1">
          <mxGeometry x="-1195" y="261" width="90" height="60" as="geometry" />
        </mxCell>
        <mxCell id="5" value="ON-DEMAND SYSTEM DEVELOPMENT" style="shape=process;whiteSpace=wrap;align=center;verticalAlign=middle;size=0.0475;fontStyle=1;strokeWidth=3;fillColor=#FFCCCC" parent="1" vertex="1">
          <mxGeometry x="-1005" y="371" width="400" height="50" as="geometry" />
        </mxCell>
        <mxCell id="6" value="&lt;p style=&quot;margin: 0px; margin-top: 4px; text-align: center; text-decoration: underline;&quot;&gt;&lt;strong&gt;Process 2&lt;br /&gt;&lt;/strong&gt;&lt;/p&gt;&lt;hr /&gt;&lt;p style=&quot;margin: 0px; margin-left: 8px;&quot;&gt;System Analysis&lt;/p&gt;" style="verticalAlign=middle;align=center;overflow=fill;fontSize=12;fontFamily=Helvetica;html=1;rounded=1;fontStyle=1;strokeWidth=3;fillColor=#E6FFCC" parent="1" vertex="1">
          <mxGeometry x="-845" y="156" width="110" height="90" as="geometry" />
        </mxCell>
        <mxCell id="7" value="&lt;p style=&quot;margin: 0px; margin-top: 4px; text-align: center; text-decoration: underline;&quot;&gt;&lt;strong&gt;&lt;strong&gt;Process&lt;/strong&gt; 3&lt;br /&gt;&lt;/strong&gt;&lt;/p&gt;&lt;hr /&gt;&lt;p style=&quot;margin: 0px; margin-left: 8px;&quot;&gt;List Possible&lt;/p&gt;&lt;p style=&quot;margin: 0px; margin-left: 8px;&quot;&gt;System Solutions&lt;/p&gt;" style="verticalAlign=middle;align=center;overflow=fill;fontSize=12;fontFamily=Helvetica;html=1;rounded=1;fontStyle=1;strokeWidth=3;fillColor=#E6FFCC" parent="1" vertex="1">
          <mxGeometry x="-554" y="381" width="110" height="90" as="geometry" />
        </mxCell>
        <mxCell id="8" value="&lt;p style=&quot;margin: 0px; margin-top: 4px; text-align: center; text-decoration: underline;&quot;&gt;&lt;strong&gt;&lt;strong&gt;Process&lt;/strong&gt; 4&lt;br /&gt;&lt;/strong&gt;&lt;/p&gt;&lt;hr /&gt;&lt;p style=&quot;margin: 0px; margin-left: 8px;&quot;&gt;Detail Chosen&lt;/p&gt;&lt;p style=&quot;margin: 0px; margin-left: 8px;&quot;&gt;Solution&lt;/p&gt;" style="verticalAlign=middle;align=center;overflow=fill;fontSize=12;fontFamily=Helvetica;html=1;rounded=1;fontStyle=1;strokeWidth=3;fillColor=#E6FFCC" parent="1" vertex="1">
          <mxGeometry x="-675" y="251" width="110" height="90" as="geometry" />
        </mxCell>
        <mxCell id="9" value="&lt;p style=&quot;margin: 0px; margin-top: 4px; text-align: center; text-decoration: underline;&quot;&gt;&lt;strong&gt;&lt;strong&gt;Process&lt;/strong&gt; 5&lt;br /&gt;&lt;/strong&gt;&lt;/p&gt;&lt;hr /&gt;&lt;p style=&quot;margin: 0px; margin-left: 8px;&quot;&gt;New System&lt;/p&gt;&lt;p style=&quot;margin: 0px; margin-left: 8px;&quot;&gt;Design&lt;/p&gt;" style="verticalAlign=middle;align=center;overflow=fill;fontSize=12;fontFamily=Helvetica;html=1;rounded=1;fontStyle=1;strokeWidth=3;fillColor=#E6FFCC" parent="1" vertex="1">
          <mxGeometry x="-695" y="520" width="110" height="90" as="geometry" />
        </mxCell>
        <mxCell id="10" value="&lt;p style=&quot;margin: 0px; margin-top: 4px; text-align: center; text-decoration: underline;&quot;&gt;&lt;strong&gt;&lt;strong&gt;Process&lt;/strong&gt; 6&lt;br /&gt;&lt;/strong&gt;&lt;/p&gt;&lt;hr /&gt;&lt;p style=&quot;margin: 0px; margin-left: 8px;&quot;&gt;New&lt;/p&gt;&lt;p style=&quot;margin: 0px; margin-left: 8px;&quot;&gt;System&lt;/p&gt;&lt;p style=&quot;margin: 0px; margin-left: 8px;&quot;&gt;Construction&lt;/p&gt;" style="verticalAlign=middle;align=center;overflow=fill;fontSize=12;fontFamily=Helvetica;html=1;rounded=1;fontStyle=1;strokeWidth=3;fillColor=#E6FFCC" parent="1" vertex="1">
          <mxGeometry x="-1046.5" y="520" width="110" height="90" as="geometry" />
        </mxCell>
        <mxCell id="12" value="Management" style="whiteSpace=wrap;align=center;verticalAlign=middle;fontStyle=1;strokeWidth=3;fillColor=#FFFFCC" parent="1" vertex="1">
          <mxGeometry x="-544" y="70" width="90" height="60" as="geometry" />
        </mxCell>
        <mxCell id="13" value="Management" style="whiteSpace=wrap;align=center;verticalAlign=middle;fontStyle=1;strokeWidth=3;fillColor=#FFFFCC" parent="1" vertex="1">
          <mxGeometry x="-881.5" y="660" width="90" height="60" as="geometry" />
        </mxCell>
        <mxCell id="14" value="Engineering" style="whiteSpace=wrap;align=center;verticalAlign=middle;fontStyle=1;strokeWidth=3;fillColor=#FFFFCC" parent="1" vertex="1">
          <mxGeometry x="-1200" y="535" width="90" height="60" as="geometry" />
        </mxCell>
        <mxCell id="15" value="Vendors" style="whiteSpace=wrap;align=center;verticalAlign=middle;fontStyle=1;strokeWidth=3;fillColor=#FFFFCC" parent="1" vertex="1">
          <mxGeometry x="-685" y="660" width="90" height="60" as="geometry" />
        </mxCell>
        <mxCell id="36" value="" style="edgeStyle=none;noEdgeStyle=1;strokeColor=#990000;strokeWidth=2" parent="1" source="3" target="2" edge="1">
          <mxGeometry width="100" height="100" relative="1" as="geometry">
            <mxPoint x="-1215" y="260" as="sourcePoint" />
            <mxPoint x="-1115" y="160" as="targetPoint" />
          </mxGeometry>
        </mxCell>
        <mxCell id="37" value="" style="edgeStyle=none;noEdgeStyle=1;strokeColor=#990000;strokeWidth=2" parent="1" source="4" target="2" edge="1">
          <mxGeometry width="100" height="100" relative="1" as="geometry">
            <mxPoint x="-955" y="200" as="sourcePoint" />
            <mxPoint x="-855" y="100" as="targetPoint" />
          </mxGeometry>
        </mxCell>
        <mxCell id="11" value="&lt;p style=&quot;margin: 0px; margin-top: 4px; text-align: center; text-decoration: underline;&quot;&gt;&lt;strong&gt;&lt;strong&gt;Process&lt;/strong&gt; 7&lt;br /&gt;&lt;/strong&gt;&lt;/p&gt;&lt;hr /&gt;&lt;p style=&quot;margin: 0px; margin-left: 8px;&quot;&gt;New System&lt;/p&gt;&lt;p style=&quot;margin: 0px; margin-left: 8px;&quot;&gt;Startup and&lt;/p&gt;&lt;p style=&quot;margin: 0px; margin-left: 8px;&quot;&gt;Testing&lt;/p&gt;" style="verticalAlign=middle;align=center;overflow=fill;fontSize=12;fontFamily=Helvetica;html=1;rounded=1;fontStyle=1;strokeWidth=3;fillColor=#E6FFCC" parent="1" vertex="1">
          <mxGeometry x="-891.5" y="520" width="110" height="90" as="geometry" />
        </mxCell>
        <mxCell id="51" value="" style="endArrow=none;noEdgeStyle=1;strokeColor=#990000;strokeWidth=2" parent="1" source="9" target="11" edge="1">
          <mxGeometry relative="1" as="geometry">
            <mxPoint x="-1029.9918032786886" y="491" as="sourcePoint" />
            <mxPoint x="-834.672131147541" y="660" as="targetPoint" />
          </mxGeometry>
        </mxCell>
        <mxCell id="52" value="Desired &#xa;functionality" style="text;spacingTop=-5;align=center" parent="1" vertex="1">
          <mxGeometry x="-1070" y="261" width="30" height="20" as="geometry" />
        </mxCell>
        <mxCell id="53" value="Desired &#xa;functionality" style="text;spacingTop=-5;align=center" parent="1" vertex="1">
          <mxGeometry x="-994" y="206" width="30" height="20" as="geometry" />
        </mxCell>
        <mxCell id="54" value="Documentation&#xa;from similar projects" style="text;spacingTop=-5;align=center" parent="1" vertex="1">
          <mxGeometry x="-1049" y="351" width="30" height="20" as="geometry" />
        </mxCell>
        <mxCell id="55" value="" style="edgeStyle=elbowEdgeStyle;elbow=horizontal;strokeColor=#990000;strokeWidth=2" parent="1" source="5" target="2" edge="1">
          <mxGeometry width="100" height="100" relative="1" as="geometry">
            <mxPoint x="-1185" y="540" as="sourcePoint" />
            <mxPoint x="-1085" y="440" as="targetPoint" />
            <Array as="points">
              <mxPoint x="-975" y="380" />
            </Array>
          </mxGeometry>
        </mxCell>
        <mxCell id="56" value="" style="edgeStyle=elbowEdgeStyle;elbow=horizontal;strokeColor=#990000;strokeWidth=2" parent="1" source="2" target="5" edge="1">
          <mxGeometry width="100" height="100" relative="1" as="geometry">
            <mxPoint x="-1185" y="510" as="sourcePoint" />
            <mxPoint x="-1085" y="410" as="targetPoint" />
            <Array as="points">
              <mxPoint x="-955" y="370" />
            </Array>
          </mxGeometry>
        </mxCell>
        <mxCell id="57" value="Elaborate&#xa;cost/benefit&#xa;ratio" style="text;spacingTop=-5;align=center" parent="1" vertex="1">
          <mxGeometry x="-929" y="351" width="30" height="20" as="geometry" />
        </mxCell>
        <mxCell id="58" value="" style="edgeStyle=elbowEdgeStyle;elbow=horizontal;strokeColor=#990000;strokeWidth=2" parent="1" source="5" target="6" edge="1">
          <mxGeometry width="100" height="100" relative="1" as="geometry">
            <mxPoint x="-855" y="380" as="sourcePoint" />
            <mxPoint x="-755" y="280" as="targetPoint" />
            <Array as="points">
              <mxPoint x="-795" y="320" />
            </Array>
          </mxGeometry>
        </mxCell>
        <mxCell id="59" value="" style="edgeStyle=elbowEdgeStyle;elbow=horizontal;strokeColor=#990000;strokeWidth=2" parent="1" source="6" target="5" edge="1">
          <mxGeometry width="100" height="100" relative="1" as="geometry">
            <mxPoint x="-885" y="380" as="sourcePoint" />
            <mxPoint x="-785" y="280" as="targetPoint" />
            <Array as="points">
              <mxPoint x="-775" y="330" />
            </Array>
          </mxGeometry>
        </mxCell>
        <mxCell id="60" value="Existing&#xa;documentation" style="text;spacingTop=-5;align=center" parent="1" vertex="1">
          <mxGeometry x="-855" y="290.9999999999998" width="30" height="20" as="geometry" />
        </mxCell>
        <mxCell id="61" value="Necessary&#xa;resources" style="text;spacingTop=-5;align=center" parent="1" vertex="1">
          <mxGeometry x="-753.9999999999998" y="261" width="30" height="20" as="geometry" />
        </mxCell>
        <mxCell id="62" value="Progress&#xa;reports" style="text;spacingTop=-5;align=center" parent="1" vertex="1">
          <mxGeometry x="-690" y="110" width="30" height="20" as="geometry" />
        </mxCell>
        <mxCell id="63" value="Progress&#xa;reports" style="text;spacingTop=-5;align=center" parent="1" vertex="1">
          <mxGeometry x="-595" y="156.0000000000001" width="30" height="20" as="geometry" />
        </mxCell>
        <mxCell id="64" value="Progress&#xa;reports" style="text;spacingTop=-5;align=center" parent="1" vertex="1">
          <mxGeometry x="-484" y="271.0000000000001" width="30" height="20" as="geometry" />
        </mxCell>
        <mxCell id="65" value="" style="edgeStyle=elbowEdgeStyle;elbow=horizontal;strokeColor=#990000;strokeWidth=2" parent="1" source="6" target="12" edge="1">
          <mxGeometry width="100" height="100" relative="1" as="geometry">
            <mxPoint x="-975" y="190.0000000000001" as="sourcePoint" />
            <mxPoint x="-875" y="90.00000000000011" as="targetPoint" />
            <Array as="points">
              <mxPoint x="-790" y="150" />
            </Array>
          </mxGeometry>
        </mxCell>
        <mxCell id="66" value="" style="edgeStyle=elbowEdgeStyle;elbow=vertical;entryX=0.25;entryY=1;strokeColor=#990000;strokeWidth=2" parent="1" source="8" target="12" edge="1">
          <mxGeometry width="100" height="100" relative="1" as="geometry">
            <mxPoint x="-705" y="260" as="sourcePoint" />
            <mxPoint x="-605" y="160" as="targetPoint" />
          </mxGeometry>
        </mxCell>
        <mxCell id="67" value="" style="edgeStyle=elbowEdgeStyle;elbow=horizontal;strokeColor=#990000;strokeWidth=2" parent="1" source="7" target="12" edge="1">
          <mxGeometry width="100" height="100" relative="1" as="geometry">
            <mxPoint x="-574.9999999999998" y="370" as="sourcePoint" />
            <mxPoint x="-474.9999999999998" y="270" as="targetPoint" />
          </mxGeometry>
        </mxCell>
        <mxCell id="68" value="" style="edgeStyle=elbowEdgeStyle;elbow=horizontal;strokeColor=#990000;strokeWidth=2" parent="1" source="8" target="5" edge="1">
          <mxGeometry width="100" height="100" relative="1" as="geometry">
            <mxPoint x="-665" y="390" as="sourcePoint" />
            <mxPoint x="-725" y="260" as="targetPoint" />
            <Array as="points">
              <mxPoint x="-665" y="370" />
            </Array>
          </mxGeometry>
        </mxCell>
        <mxCell id="69" value="" style="edgeStyle=segmentEdgeStyle;strokeColor=#990000;strokeWidth=2" parent="1" source="5" target="8" edge="1">
          <mxGeometry width="100" height="100" relative="1" as="geometry">
            <mxPoint x="-895" y="370" as="sourcePoint" />
            <mxPoint x="-795" y="270" as="targetPoint" />
            <Array as="points">
              <mxPoint x="-715" y="296" />
            </Array>
          </mxGeometry>
        </mxCell>
        <mxCell id="70" value="Existing&#xa;Models" style="text;spacingTop=-5;align=center" parent="1" vertex="1">
          <mxGeometry x="-704.9999999999998" y="350.9999999999999" width="30" height="20" as="geometry" />
        </mxCell>
        <mxCell id="71" value="Equipment&#xa;specification" style="text;spacingTop=-5;align=center" parent="1" vertex="1">
          <mxGeometry x="-620" y="351" width="30" height="20" as="geometry" />
        </mxCell>
        <mxCell id="72" value="" style="edgeStyle=elbowEdgeStyle;elbow=vertical;strokeColor=#990000;strokeWidth=2" parent="1" source="5" target="7" edge="1">
          <mxGeometry width="100" height="100" relative="1" as="geometry">
            <mxPoint x="-735" y="510" as="sourcePoint" />
            <mxPoint x="-635" y="410" as="targetPoint" />
            <Array as="points">
              <mxPoint x="-585" y="420" />
            </Array>
          </mxGeometry>
        </mxCell>
        <mxCell id="73" value="" style="edgeStyle=elbowEdgeStyle;elbow=vertical;strokeColor=#990000;strokeWidth=2" parent="1" source="7" target="5" edge="1">
          <mxGeometry width="100" height="100" relative="1" as="geometry">
            <mxPoint x="-775" y="510" as="sourcePoint" />
            <mxPoint x="-675" y="410" as="targetPoint" />
            <Array as="points">
              <mxPoint x="-585" y="440" />
            </Array>
          </mxGeometry>
        </mxCell>
        <mxCell id="74" value="Resources" style="text;spacingTop=-5;align=center" parent="1" vertex="1">
          <mxGeometry x="-614" y="401" width="30" height="20" as="geometry" />
        </mxCell>
        <mxCell id="75" value="System &#xa;Advantages &#xa;and Limitations" style="text;spacingTop=-5;align=center" parent="1" vertex="1">
          <mxGeometry x="-605" y="441" width="30" height="20" as="geometry" />
        </mxCell>
        <mxCell id="76" value="" style="edgeStyle=elbowEdgeStyle;elbow=horizontal;strokeColor=#990000;strokeWidth=2" parent="1" source="9" target="5" edge="1">
          <mxGeometry width="100" height="100" relative="1" as="geometry">
            <mxPoint x="-815" y="590" as="sourcePoint" />
            <mxPoint x="-715" y="490" as="targetPoint" />
            <Array as="points">
              <mxPoint x="-665" y="480" />
            </Array>
          </mxGeometry>
        </mxCell>
        <mxCell id="77" value="" style="edgeStyle=elbowEdgeStyle;elbow=horizontal;strokeColor=#990000;strokeWidth=2" parent="1" source="5" target="9" edge="1">
          <mxGeometry width="100" height="100" relative="1" as="geometry">
            <mxPoint x="-835" y="600" as="sourcePoint" />
            <mxPoint x="-735" y="500" as="targetPoint" />
            <Array as="points">
              <mxPoint x="-675" y="490" />
            </Array>
          </mxGeometry>
        </mxCell>
        <mxCell id="78" value="" style="edgeStyle=elbowEdgeStyle;elbow=horizontal;strokeColor=#990000;strokeWidth=2" parent="1" source="15" target="9" edge="1">
          <mxGeometry width="100" height="100" relative="1" as="geometry">
            <mxPoint x="-805" y="710" as="sourcePoint" />
            <mxPoint x="-705" y="610" as="targetPoint" />
          </mxGeometry>
        </mxCell>
        <mxCell id="79" value="Hardware and&#xa;Software specs" style="text;spacingTop=-5;align=center" parent="1" vertex="1">
          <mxGeometry x="-610" y="620" width="30" height="20" as="geometry" />
        </mxCell>
        <mxCell id="81" value="" style="edgeStyle=elbowEdgeStyle;elbow=horizontal;exitX=0;exitY=0.75;strokeColor=#990000;strokeWidth=2" parent="1" source="9" target="13" edge="1">
          <mxGeometry width="100" height="100" relative="1" as="geometry">
            <mxPoint x="-815" y="740" as="sourcePoint" />
            <mxPoint x="-715" y="640" as="targetPoint" />
            <Array as="points">
              <mxPoint x="-765" y="640" />
            </Array>
          </mxGeometry>
        </mxCell>
        <mxCell id="82" value="Progress&#xa;Reports" style="text;spacingTop=-5;align=center" parent="1" vertex="1">
          <mxGeometry x="-753.9999999999995" y="620" width="30" height="20" as="geometry" />
        </mxCell>
        <mxCell id="83" value="" style="edgeStyle=elbowEdgeStyle;elbow=horizontal;strokeColor=#990000;strokeWidth=2" parent="1" source="11" target="13" edge="1">
          <mxGeometry width="100" height="100" relative="1" as="geometry">
            <mxPoint x="-1035" y="670.0000000000002" as="sourcePoint" />
            <mxPoint x="-1005" y="660" as="targetPoint" />
          </mxGeometry>
        </mxCell>
        <mxCell id="84" value="Progress&#xa;Reports" style="text;spacingTop=-5;align=center" parent="1" vertex="1">
          <mxGeometry x="-824.9999999999998" y="620.0000000000002" width="30" height="20" as="geometry" />
        </mxCell>
        <mxCell id="85" value="" style="edgeStyle=elbowEdgeStyle;elbow=horizontal;strokeColor=#990000;strokeWidth=2" parent="1" source="10" target="13" edge="1">
          <mxGeometry width="100" height="100" relative="1" as="geometry">
            <mxPoint x="-1105" y="750" as="sourcePoint" />
            <mxPoint x="-1005" y="650" as="targetPoint" />
            <Array as="points">
              <mxPoint x="-991" y="640" />
            </Array>
          </mxGeometry>
        </mxCell>
        <mxCell id="86" value="Progress&#xa;Reports" style="text;spacingTop=-5;align=center" parent="1" vertex="1">
          <mxGeometry x="-979" y="660" width="30" height="20" as="geometry" />
        </mxCell>
        <mxCell id="87" value="" style="edgeStyle=elbowEdgeStyle;elbow=vertical;strokeColor=#990000;strokeWidth=2" parent="1" source="10" target="14" edge="1">
          <mxGeometry width="100" height="100" relative="1" as="geometry">
            <mxPoint x="-1165" y="750" as="sourcePoint" />
            <mxPoint x="-1065" y="650" as="targetPoint" />
          </mxGeometry>
        </mxCell>
        <mxCell id="88" value="" style="edgeStyle=elbowEdgeStyle;elbow=horizontal;strokeColor=#990000;strokeWidth=2" parent="1" source="5" target="11" edge="1">
          <mxGeometry width="100" height="100" relative="1" as="geometry">
            <mxPoint x="-1185" y="510" as="sourcePoint" />
            <mxPoint x="-1085" y="410" as="targetPoint" />
            <Array as="points">
              <mxPoint x="-845" y="480" />
            </Array>
          </mxGeometry>
        </mxCell>
        <mxCell id="89" value="" style="edgeStyle=elbowEdgeStyle;elbow=horizontal;strokeColor=#990000;strokeWidth=2" parent="1" source="11" target="5" edge="1">
          <mxGeometry width="100" height="100" relative="1" as="geometry">
            <mxPoint x="-1175" y="520" as="sourcePoint" />
            <mxPoint x="-1075" y="420" as="targetPoint" />
            <Array as="points">
              <mxPoint x="-825" y="480" />
            </Array>
          </mxGeometry>
        </mxCell>
        <mxCell id="90" value="Version&#xa;specs" style="text;spacingTop=-5;align=center" parent="1" vertex="1">
          <mxGeometry x="-974" y="471" width="30" height="20" as="geometry" />
        </mxCell>
        <mxCell id="91" value="Certificates,&#xa;system&#xa;libraries" style="text;spacingTop=-5;align=center" parent="1" vertex="1">
          <mxGeometry x="-1055" y="471.0000000000002" width="30" height="20" as="geometry" />
        </mxCell>
        <mxCell id="92" value="" style="edgeStyle=elbowEdgeStyle;elbow=horizontal;strokeColor=#990000;strokeWidth=2" parent="1" source="5" target="10" edge="1">
          <mxGeometry width="100" height="100" relative="1" as="geometry">
            <mxPoint x="-1205" y="510" as="sourcePoint" />
            <mxPoint x="-1105" y="410" as="targetPoint" />
            <Array as="points">
              <mxPoint x="-985" y="480" />
            </Array>
          </mxGeometry>
        </mxCell>
        <mxCell id="93" value="" style="edgeStyle=elbowEdgeStyle;elbow=horizontal;strokeColor=#990000;strokeWidth=2" parent="1" source="10" target="5" edge="1">
          <mxGeometry width="100" height="100" relative="1" as="geometry">
            <mxPoint x="-1195" y="520" as="sourcePoint" />
            <mxPoint x="-1095" y="420" as="targetPoint" />
            <Array as="points">
              <mxPoint x="-1005" y="480" />
            </Array>
          </mxGeometry>
        </mxCell>
        <mxCell id="94" value="System&#xa;specs" style="text;spacingTop=-5;align=center" parent="1" vertex="1">
          <mxGeometry x="-1095" y="575" width="30" height="20" as="geometry" />
        </mxCell>
        <mxCell id="95" value="Design&#xa;specs" style="text;spacingTop=-5;align=center" parent="1" vertex="1">
          <mxGeometry x="-811.5" y="471.0000000000002" width="30" height="20" as="geometry" />
        </mxCell>
        <mxCell id="96" value="System&#xa;version" style="text;spacingTop=-5;align=center" parent="1" vertex="1">
          <mxGeometry x="-884.0000000000002" y="471" width="30" height="20" as="geometry" />
        </mxCell>
        <mxCell id="eKC9OIA3BLi0-JA3vqOY-96" value="&lt;p style=&quot;margin: 0px; margin-top: 4px; text-align: center; text-decoration: underline;&quot;&gt;&lt;strong&gt;&lt;strong&gt;Process&lt;/strong&gt; 6&lt;br /&gt;&lt;/strong&gt;&lt;/p&gt;&lt;hr /&gt;&lt;p style=&quot;margin: 0px; margin-left: 8px;&quot;&gt;New&lt;/p&gt;&lt;p style=&quot;margin: 0px; margin-left: 8px;&quot;&gt;System&lt;/p&gt;&lt;p style=&quot;margin: 0px; margin-left: 8px;&quot;&gt;Construction&lt;/p&gt;" style="verticalAlign=middle;align=center;overflow=fill;fontSize=12;fontFamily=Helvetica;html=1;rounded=1;fontStyle=1;strokeWidth=3;fillColor=#E6FFCC" vertex="1" parent="1">
          <mxGeometry x="-210" y="830" width="110" height="90" as="geometry" />
        </mxCell>
      </root>
    </mxGraphModel>
  </diagram>
  <diagram id="rPV4KsdeGZFgIvWjenZ5" name="페이지-2">
    <mxGraphModel dx="3447" dy="900" grid="1" gridSize="10" guides="1" tooltips="1" connect="1" arrows="1" fold="1" page="1" pageScale="1" pageWidth="827" pageHeight="1169" math="0" shadow="0">
      <root>
        <mxCell id="0" />
        <mxCell id="1" parent="0" />
        <mxCell id="L2F71ACjMWBGbvpaO4Vv-1" value="&lt;p style=&quot;margin: 4px 0px 0px; text-align: center; text-decoration: underline; font-size: 20px;&quot;&gt;&lt;font style=&quot;font-size: 20px;&quot;&gt;ros2_ws&lt;/font&gt;&lt;/p&gt;&lt;hr style=&quot;font-size: 20px;&quot;&gt;&lt;p style=&quot;margin: 0px 0px 0px 8px; font-size: 20px;&quot;&gt;&lt;br&gt;&lt;/p&gt;" style="verticalAlign=middle;align=center;overflow=fill;fontSize=12;fontFamily=Helvetica;html=1;rounded=1;fontStyle=1;strokeWidth=3;fillColor=#E6FFCC" vertex="1" parent="1">
          <mxGeometry x="-1650" y="70" width="1560" height="920" as="geometry" />
        </mxCell>
        <mxCell id="L2F71ACjMWBGbvpaO4Vv-8" value="" style="group" vertex="1" connectable="0" parent="1">
          <mxGeometry x="-1570" y="120" width="1430" height="790" as="geometry" />
        </mxCell>
        <mxCell id="L2F71ACjMWBGbvpaO4Vv-2" value="" style="rounded=1;whiteSpace=wrap;html=1;strokeColor=#d6b656;strokeWidth=3;align=center;verticalAlign=middle;fontFamily=Helvetica;fontSize=12;fontStyle=1;fillColor=#fff2cc;" vertex="1" parent="L2F71ACjMWBGbvpaO4Vv-8">
          <mxGeometry width="1430" height="790" as="geometry" />
        </mxCell>
        <mxCell id="L2F71ACjMWBGbvpaO4Vv-5" value="&lt;font style=&quot;font-size: 20px;&quot;&gt;src&lt;/font&gt;" style="text;html=1;align=center;verticalAlign=middle;whiteSpace=wrap;rounded=0;fontFamily=Helvetica;fontSize=12;fontColor=default;fontStyle=1;" vertex="1" parent="L2F71ACjMWBGbvpaO4Vv-8">
          <mxGeometry x="150" width="60" height="30" as="geometry" />
        </mxCell>
        <mxCell id="L2F71ACjMWBGbvpaO4Vv-7" value="" style="group" vertex="1" connectable="0" parent="L2F71ACjMWBGbvpaO4Vv-8">
          <mxGeometry x="40" y="50" width="1330" height="680" as="geometry" />
        </mxCell>
        <mxCell id="L2F71ACjMWBGbvpaO4Vv-4" value="" style="rounded=1;whiteSpace=wrap;html=1;strokeColor=#6c8ebf;strokeWidth=3;align=center;verticalAlign=middle;fontFamily=Helvetica;fontSize=12;fontStyle=1;fillColor=#dae8fc;" vertex="1" parent="L2F71ACjMWBGbvpaO4Vv-7">
          <mxGeometry width="1330" height="680" as="geometry" />
        </mxCell>
        <mxCell id="L2F71ACjMWBGbvpaO4Vv-6" value="&lt;font style=&quot;font-size: 20px;&quot;&gt;v2x_hub&lt;/font&gt;" style="text;html=1;align=center;verticalAlign=middle;whiteSpace=wrap;rounded=0;fontFamily=Helvetica;fontSize=12;fontColor=default;fontStyle=1;" vertex="1" parent="L2F71ACjMWBGbvpaO4Vv-7">
          <mxGeometry x="79.99999999999999" y="10" width="143.8" height="40" as="geometry" />
        </mxCell>
        <mxCell id="L2F71ACjMWBGbvpaO4Vv-18" value="" style="group" vertex="1" connectable="0" parent="L2F71ACjMWBGbvpaO4Vv-7">
          <mxGeometry x="70" y="90" width="350" height="540" as="geometry" />
        </mxCell>
        <mxCell id="L2F71ACjMWBGbvpaO4Vv-9" value="&lt;div style=&quot;text-align: justify; line-height: 140%;&quot;&gt;&amp;nbsp; &quot;msg/AdsAds.msg&quot;&lt;/div&gt;&lt;div style=&quot;text-align: justify; line-height: 140%;&quot;&gt;&amp;nbsp; &quot;msg/AdsControllerStatus.msg&quot;&lt;/div&gt;&lt;div style=&quot;text-align: justify; line-height: 140%;&quot;&gt;&amp;nbsp; &quot;msg/AdsDrivingMode.msg&quot;&lt;/div&gt;&lt;div style=&quot;text-align: justify; line-height: 140%;&quot;&gt;&amp;nbsp; &quot;msg/AdsHf.msg&quot;&lt;/div&gt;&lt;div style=&quot;text-align: justify; line-height: 140%;&quot;&gt;&amp;nbsp; &quot;msg/AdsLf.msg&quot;&lt;/div&gt;&lt;div style=&quot;text-align: justify; line-height: 140%;&quot;&gt;&amp;nbsp; &quot;msg/AdsLane.msg&quot;&lt;/div&gt;&lt;div style=&quot;text-align: justify; line-height: 140%;&quot;&gt;&amp;nbsp; &quot;msg/AdsObject.msg&quot;&lt;/div&gt;&lt;div style=&quot;text-align: justify; line-height: 140%;&quot;&gt;&amp;nbsp; &quot;msg/AdsPosSensorStatus.msg&quot;&lt;/div&gt;&lt;div style=&quot;text-align: justify; line-height: 140%;&quot;&gt;&amp;nbsp; &quot;msg/AdsRecogSensorStatus.msg&quot;&lt;/div&gt;&lt;div style=&quot;text-align: justify; line-height: 140%;&quot;&gt;&amp;nbsp; &quot;msg/AdsSystem.msg&quot;&lt;/div&gt;&lt;div style=&quot;text-align: justify; line-height: 140%;&quot;&gt;&amp;nbsp; &quot;msg/AdsSystemSupported.msg&quot;&lt;/div&gt;&lt;div style=&quot;text-align: justify; line-height: 140%;&quot;&gt;&amp;nbsp; &quot;msg/AdsVehicle.msg&quot;&lt;/div&gt;&lt;div style=&quot;text-align: justify; line-height: 140%;&quot;&gt;&amp;nbsp; &quot;msg/FuncStatus.msg&quot;&lt;/div&gt;&lt;div style=&quot;text-align: justify; line-height: 140%;&quot;&gt;&amp;nbsp; &quot;msg/Gnss.msg&quot;&lt;/div&gt;&lt;div style=&quot;text-align: justify; line-height: 140%;&quot;&gt;&amp;nbsp; &quot;msg/Hmi.msg&quot;&lt;/div&gt;&lt;div style=&quot;text-align: justify; line-height: 140%;&quot;&gt;&amp;nbsp; &quot;msg/HmiCargo.msg&quot;&lt;/div&gt;&lt;div style=&quot;text-align: justify; line-height: 140%;&quot;&gt;&amp;nbsp; &quot;msg/HmiDriving.msg&quot;&lt;/div&gt;&lt;div style=&quot;text-align: justify; line-height: 140%;&quot;&gt;&amp;nbsp; &quot;msg/HmiOverload.msg&quot;&lt;/div&gt;&lt;div style=&quot;text-align: justify; line-height: 140%;&quot;&gt;&amp;nbsp; &quot;msg/HmiSystem.msg&quot;&lt;/div&gt;&lt;div style=&quot;text-align: justify; line-height: 140%;&quot;&gt;&amp;nbsp; &quot;msg/HmiTransport.msg&quot;&lt;/div&gt;&lt;div style=&quot;text-align: justify; line-height: 140%;&quot;&gt;&amp;nbsp; &quot;msg/SysConnStatus.msg&quot;&lt;/div&gt;&lt;div style=&quot;text-align: justify; line-height: 140%;&quot;&gt;&lt;br&gt;&lt;/div&gt;" style="rounded=1;whiteSpace=wrap;html=1;strokeColor=#9673a6;strokeWidth=3;align=left;verticalAlign=middle;fontFamily=Helvetica;fontSize=12;fontStyle=1;fillColor=#e1d5e7;" vertex="1" parent="L2F71ACjMWBGbvpaO4Vv-18">
          <mxGeometry width="350" height="420" as="geometry" />
        </mxCell>
        <mxCell id="L2F71ACjMWBGbvpaO4Vv-17" value="&lt;font style=&quot;font-size: 20px;&quot;&gt;msg&lt;/font&gt;" style="text;html=1;align=center;verticalAlign=middle;whiteSpace=wrap;rounded=0;fontFamily=Helvetica;fontSize=12;fontColor=default;fontStyle=1;" vertex="1" parent="L2F71ACjMWBGbvpaO4Vv-18">
          <mxGeometry x="90" y="-30" width="143.8" height="40" as="geometry" />
        </mxCell>
        <mxCell id="L2F71ACjMWBGbvpaO4Vv-31" style="edgeStyle=orthogonalEdgeStyle;rounded=0;orthogonalLoop=1;jettySize=auto;html=1;exitX=0.5;exitY=1;exitDx=0;exitDy=0;fontFamily=Helvetica;fontSize=12;fontColor=default;fontStyle=1;" edge="1" parent="L2F71ACjMWBGbvpaO4Vv-18" source="L2F71ACjMWBGbvpaO4Vv-9" target="L2F71ACjMWBGbvpaO4Vv-9">
          <mxGeometry relative="1" as="geometry" />
        </mxCell>
        <mxCell id="L2F71ACjMWBGbvpaO4Vv-19" value="" style="group" vertex="1" connectable="0" parent="L2F71ACjMWBGbvpaO4Vv-7">
          <mxGeometry x="510" y="90" width="350" height="540" as="geometry" />
        </mxCell>
        <mxCell id="L2F71ACjMWBGbvpaO4Vv-20" value="" style="rounded=1;whiteSpace=wrap;html=1;strokeColor=#9673a6;strokeWidth=3;align=center;verticalAlign=middle;fontFamily=Helvetica;fontSize=12;fontStyle=1;fillColor=#e1d5e7;" vertex="1" parent="L2F71ACjMWBGbvpaO4Vv-19">
          <mxGeometry width="350" height="540" as="geometry" />
        </mxCell>
        <mxCell id="L2F71ACjMWBGbvpaO4Vv-21" value="&lt;font style=&quot;font-size: 20px;&quot;&gt;src&lt;/font&gt;" style="text;html=1;align=center;verticalAlign=middle;whiteSpace=wrap;rounded=0;fontFamily=Helvetica;fontSize=12;fontColor=default;fontStyle=1;" vertex="1" parent="L2F71ACjMWBGbvpaO4Vv-19">
          <mxGeometry x="90" width="143.8" height="40" as="geometry" />
        </mxCell>
        <mxCell id="L2F71ACjMWBGbvpaO4Vv-27" value="" style="group" vertex="1" connectable="0" parent="L2F71ACjMWBGbvpaO4Vv-19">
          <mxGeometry x="25" y="60" width="300" height="190" as="geometry" />
        </mxCell>
        <mxCell id="L2F71ACjMWBGbvpaO4Vv-25" value="" style="rounded=1;whiteSpace=wrap;html=1;strokeWidth=3;align=center;verticalAlign=middle;fontFamily=Helvetica;fontSize=12;fontStyle=1;" vertex="1" parent="L2F71ACjMWBGbvpaO4Vv-27">
          <mxGeometry width="300" height="190" as="geometry" />
        </mxCell>
        <mxCell id="L2F71ACjMWBGbvpaO4Vv-26" value="v2x_hub_sub_pub.cpp" style="text;html=1;align=center;verticalAlign=middle;whiteSpace=wrap;rounded=0;fontFamily=Helvetica;fontSize=12;fontColor=default;fontStyle=1;" vertex="1" parent="L2F71ACjMWBGbvpaO4Vv-27">
          <mxGeometry x="78.10000000000002" width="143.8" height="40" as="geometry" />
        </mxCell>
        <mxCell id="L2F71ACjMWBGbvpaO4Vv-28" value="" style="group" vertex="1" connectable="0" parent="L2F71ACjMWBGbvpaO4Vv-19">
          <mxGeometry x="25" y="280" width="300" height="190" as="geometry" />
        </mxCell>
        <mxCell id="L2F71ACjMWBGbvpaO4Vv-29" value="" style="rounded=1;whiteSpace=wrap;html=1;strokeWidth=3;align=center;verticalAlign=middle;fontFamily=Helvetica;fontSize=12;fontStyle=1;" vertex="1" parent="L2F71ACjMWBGbvpaO4Vv-28">
          <mxGeometry width="300" height="190" as="geometry" />
        </mxCell>
        <mxCell id="L2F71ACjMWBGbvpaO4Vv-30" value="v2x_hub_node_pub.cpp" style="text;html=1;align=center;verticalAlign=middle;whiteSpace=wrap;rounded=0;fontFamily=Helvetica;fontSize=12;fontColor=default;fontStyle=1;" vertex="1" parent="L2F71ACjMWBGbvpaO4Vv-28">
          <mxGeometry x="78.10000000000002" width="143.8" height="40" as="geometry" />
        </mxCell>
        <mxCell id="L2F71ACjMWBGbvpaO4Vv-22" value="" style="group" vertex="1" connectable="0" parent="L2F71ACjMWBGbvpaO4Vv-7">
          <mxGeometry x="940" y="100" width="350" height="540" as="geometry" />
        </mxCell>
        <mxCell id="L2F71ACjMWBGbvpaO4Vv-23" value="" style="rounded=1;whiteSpace=wrap;html=1;strokeColor=#9673a6;strokeWidth=3;align=center;verticalAlign=middle;fontFamily=Helvetica;fontSize=12;fontStyle=1;fillColor=#e1d5e7;" vertex="1" parent="L2F71ACjMWBGbvpaO4Vv-22">
          <mxGeometry width="350" height="540" as="geometry" />
        </mxCell>
        <mxCell id="L2F71ACjMWBGbvpaO4Vv-24" value="&lt;font style=&quot;font-size: 20px;&quot;&gt;launch&lt;/font&gt;" style="text;html=1;align=center;verticalAlign=middle;whiteSpace=wrap;rounded=0;fontFamily=Helvetica;fontSize=12;fontColor=default;fontStyle=1;" vertex="1" parent="L2F71ACjMWBGbvpaO4Vv-22">
          <mxGeometry x="90" width="143.8" height="40" as="geometry" />
        </mxCell>
        <mxCell id="L2F71ACjMWBGbvpaO4Vv-46" value="" style="group" vertex="1" connectable="0" parent="L2F71ACjMWBGbvpaO4Vv-22">
          <mxGeometry x="30" y="50" width="300" height="190" as="geometry" />
        </mxCell>
        <mxCell id="L2F71ACjMWBGbvpaO4Vv-47" value="" style="rounded=1;whiteSpace=wrap;html=1;strokeWidth=3;align=center;verticalAlign=middle;fontFamily=Helvetica;fontSize=12;fontStyle=1;" vertex="1" parent="L2F71ACjMWBGbvpaO4Vv-46">
          <mxGeometry width="300" height="190" as="geometry" />
        </mxCell>
        <mxCell id="L2F71ACjMWBGbvpaO4Vv-48" value="v2x_hub_sub_pub_launch.py" style="text;html=1;align=center;verticalAlign=middle;whiteSpace=wrap;rounded=0;fontFamily=Helvetica;fontSize=12;fontColor=default;fontStyle=1;" vertex="1" parent="L2F71ACjMWBGbvpaO4Vv-46">
          <mxGeometry x="78.10000000000002" width="143.8" height="40" as="geometry" />
        </mxCell>
        <mxCell id="L2F71ACjMWBGbvpaO4Vv-49" value="" style="group" vertex="1" connectable="0" parent="L2F71ACjMWBGbvpaO4Vv-22">
          <mxGeometry x="30" y="270" width="300" height="190" as="geometry" />
        </mxCell>
        <mxCell id="L2F71ACjMWBGbvpaO4Vv-50" value="" style="rounded=1;whiteSpace=wrap;html=1;strokeWidth=3;align=center;verticalAlign=middle;fontFamily=Helvetica;fontSize=12;fontStyle=1;" vertex="1" parent="L2F71ACjMWBGbvpaO4Vv-49">
          <mxGeometry width="300" height="190" as="geometry" />
        </mxCell>
        <mxCell id="L2F71ACjMWBGbvpaO4Vv-51" value="v2x_hub_node_pub&lt;span style=&quot;background-color: initial;&quot;&gt;_launch.py&lt;/span&gt;" style="text;html=1;align=center;verticalAlign=middle;whiteSpace=wrap;rounded=0;fontFamily=Helvetica;fontSize=12;fontColor=default;fontStyle=1;" vertex="1" parent="L2F71ACjMWBGbvpaO4Vv-49">
          <mxGeometry x="78.10000000000002" width="143.8" height="40" as="geometry" />
        </mxCell>
        <mxCell id="L2F71ACjMWBGbvpaO4Vv-32" value="" style="group" vertex="1" connectable="0" parent="L2F71ACjMWBGbvpaO4Vv-7">
          <mxGeometry x="70" y="530" width="350" height="30" as="geometry" />
        </mxCell>
        <mxCell id="L2F71ACjMWBGbvpaO4Vv-33" value="" style="rounded=1;whiteSpace=wrap;html=1;strokeColor=#9673a6;strokeWidth=3;align=center;verticalAlign=middle;fontFamily=Helvetica;fontSize=12;fontStyle=1;fillColor=#e1d5e7;" vertex="1" parent="L2F71ACjMWBGbvpaO4Vv-32">
          <mxGeometry width="350" height="30" as="geometry" />
        </mxCell>
        <mxCell id="L2F71ACjMWBGbvpaO4Vv-34" value="CmakeLists.txt" style="text;html=1;align=center;verticalAlign=middle;whiteSpace=wrap;rounded=0;fontFamily=Helvetica;fontSize=12;fontColor=default;fontStyle=1;" vertex="1" parent="L2F71ACjMWBGbvpaO4Vv-32">
          <mxGeometry x="90" y="13.889999999999999" width="143.8" height="2.222222222222222" as="geometry" />
        </mxCell>
        <mxCell id="L2F71ACjMWBGbvpaO4Vv-35" style="edgeStyle=orthogonalEdgeStyle;rounded=0;orthogonalLoop=1;jettySize=auto;html=1;exitX=0.5;exitY=1;exitDx=0;exitDy=0;fontFamily=Helvetica;fontSize=12;fontColor=default;fontStyle=1;" edge="1" parent="L2F71ACjMWBGbvpaO4Vv-32" source="L2F71ACjMWBGbvpaO4Vv-33" target="L2F71ACjMWBGbvpaO4Vv-33">
          <mxGeometry relative="1" as="geometry" />
        </mxCell>
        <mxCell id="L2F71ACjMWBGbvpaO4Vv-38" value="" style="group" vertex="1" connectable="0" parent="L2F71ACjMWBGbvpaO4Vv-7">
          <mxGeometry x="70" y="580" width="350" height="30" as="geometry" />
        </mxCell>
        <mxCell id="L2F71ACjMWBGbvpaO4Vv-39" value="" style="rounded=1;whiteSpace=wrap;html=1;strokeColor=#9673a6;strokeWidth=3;align=center;verticalAlign=middle;fontFamily=Helvetica;fontSize=12;fontStyle=1;fillColor=#e1d5e7;" vertex="1" parent="L2F71ACjMWBGbvpaO4Vv-38">
          <mxGeometry width="350" height="30" as="geometry" />
        </mxCell>
        <mxCell id="L2F71ACjMWBGbvpaO4Vv-40" value="package.xml" style="text;html=1;align=center;verticalAlign=middle;whiteSpace=wrap;rounded=0;fontFamily=Helvetica;fontSize=12;fontColor=default;fontStyle=1;" vertex="1" parent="L2F71ACjMWBGbvpaO4Vv-38">
          <mxGeometry x="90" y="13.889999999999999" width="143.8" height="2.222222222222222" as="geometry" />
        </mxCell>
        <mxCell id="L2F71ACjMWBGbvpaO4Vv-41" style="edgeStyle=orthogonalEdgeStyle;rounded=0;orthogonalLoop=1;jettySize=auto;html=1;exitX=0.5;exitY=1;exitDx=0;exitDy=0;fontFamily=Helvetica;fontSize=12;fontColor=default;fontStyle=1;" edge="1" parent="L2F71ACjMWBGbvpaO4Vv-38" source="L2F71ACjMWBGbvpaO4Vv-39" target="L2F71ACjMWBGbvpaO4Vv-39">
          <mxGeometry relative="1" as="geometry" />
        </mxCell>
        <mxCell id="L2F71ACjMWBGbvpaO4Vv-42" style="edgeStyle=orthogonalEdgeStyle;rounded=0;orthogonalLoop=1;jettySize=auto;html=1;entryX=0;entryY=0.75;entryDx=0;entryDy=0;fontFamily=Helvetica;fontSize=12;fontColor=default;fontStyle=1;" edge="1" parent="L2F71ACjMWBGbvpaO4Vv-7" source="L2F71ACjMWBGbvpaO4Vv-9" target="L2F71ACjMWBGbvpaO4Vv-33">
          <mxGeometry relative="1" as="geometry">
            <Array as="points">
              <mxPoint x="50" y="390" />
              <mxPoint x="50" y="553" />
            </Array>
          </mxGeometry>
        </mxCell>
        <mxCell id="L2F71ACjMWBGbvpaO4Vv-43" style="edgeStyle=orthogonalEdgeStyle;rounded=0;orthogonalLoop=1;jettySize=auto;html=1;entryX=0;entryY=0.5;entryDx=0;entryDy=0;fontFamily=Helvetica;fontSize=12;fontColor=default;fontStyle=1;" edge="1" parent="L2F71ACjMWBGbvpaO4Vv-7" source="L2F71ACjMWBGbvpaO4Vv-9" target="L2F71ACjMWBGbvpaO4Vv-39">
          <mxGeometry relative="1" as="geometry">
            <Array as="points">
              <mxPoint x="20" y="300" />
              <mxPoint x="20" y="595" />
            </Array>
          </mxGeometry>
        </mxCell>
        <mxCell id="L2F71ACjMWBGbvpaO4Vv-44" style="edgeStyle=orthogonalEdgeStyle;rounded=0;orthogonalLoop=1;jettySize=auto;html=1;fontFamily=Helvetica;fontSize=12;fontColor=default;fontStyle=1;" edge="1" parent="L2F71ACjMWBGbvpaO4Vv-7" source="L2F71ACjMWBGbvpaO4Vv-33" target="L2F71ACjMWBGbvpaO4Vv-20">
          <mxGeometry relative="1" as="geometry" />
        </mxCell>
        <mxCell id="L2F71ACjMWBGbvpaO4Vv-45" style="edgeStyle=orthogonalEdgeStyle;rounded=0;orthogonalLoop=1;jettySize=auto;html=1;exitX=1;exitY=0.5;exitDx=0;exitDy=0;entryX=0;entryY=0.75;entryDx=0;entryDy=0;fontFamily=Helvetica;fontSize=12;fontColor=default;fontStyle=1;" edge="1" parent="L2F71ACjMWBGbvpaO4Vv-7" source="L2F71ACjMWBGbvpaO4Vv-39" target="L2F71ACjMWBGbvpaO4Vv-20">
          <mxGeometry relative="1" as="geometry" />
        </mxCell>
      </root>
    </mxGraphModel>
  </diagram>
</mxfile>
